<svg xmlns="http://www.w3.org/2000/svg" width="100" height="100" viewBox="0 0 100 100">
  <path id="instagram" d="M50,0C36.417,0,34.721.062,29.387.3A36.869,36.869,0,0,0,17.25,2.625,24.485,24.485,0,0,0,8.392,8.392,24.4,24.4,0,0,0,2.625,17.25,36.761,36.761,0,0,0,.3,29.387C.05,34.721,0,36.417,0,50S.062,65.279.3,70.612A36.892,36.892,0,0,0,2.625,82.75a24.52,24.52,0,0,0,5.767,8.858,24.45,24.45,0,0,0,8.858,5.767A36.915,36.915,0,0,0,29.387,99.7c5.333.25,7.029.3,20.612.3s15.279-.062,20.613-.3A37,37,0,0,0,82.75,97.375,25.553,25.553,0,0,0,97.375,82.75,36.892,36.892,0,0,0,99.7,70.612c.25-5.333.3-7.029.3-20.613s-.062-15.279-.3-20.612A36.977,36.977,0,0,0,97.375,17.25a24.54,24.54,0,0,0-5.767-8.858A24.362,24.362,0,0,0,82.75,2.625,36.784,36.784,0,0,0,70.612.3C65.279.05,63.583,0,50,0Zm0,9c13.346,0,14.938.067,20.208.3a27.548,27.548,0,0,1,9.279,1.729,16.454,16.454,0,0,1,9.492,9.488A27.606,27.606,0,0,1,90.7,29.792c.237,5.275.292,6.858.292,20.208s-.062,14.938-.308,20.208a28.138,28.138,0,0,1-1.754,9.279,15.876,15.876,0,0,1-3.746,5.758,15.6,15.6,0,0,1-5.75,3.733A27.809,27.809,0,0,1,70.121,90.7c-5.308.237-6.871.292-20.246.292s-14.942-.062-20.246-.308a28.352,28.352,0,0,1-9.317-1.754,15.484,15.484,0,0,1-5.746-3.746,15.182,15.182,0,0,1-3.75-5.75,28.376,28.376,0,0,1-1.75-9.313c-.187-5.25-.254-6.871-.254-20.183S8.879,35,9.067,29.683a28.343,28.343,0,0,1,1.75-9.308,14.822,14.822,0,0,1,3.75-5.754,14.789,14.789,0,0,1,5.746-3.742,27.674,27.674,0,0,1,9.254-1.754c5.312-.187,6.875-.25,20.246-.25L50,9Zm0,15.325A25.675,25.675,0,1,0,75.675,50,25.673,25.673,0,0,0,50,24.325Zm0,42.342A16.667,16.667,0,1,1,66.667,50,16.662,16.662,0,0,1,50,66.667ZM82.692,23.313a6,6,0,1,1-6-6A6,6,0,0,1,82.692,23.313Z" fill="#e9e3e3"/>
</svg>
