<svg xmlns="http://www.w3.org/2000/svg" width="100" height="93.401" viewBox="0 0 100 93.401">
  <path id="snapchat" d="M50.858.8c4.125,0,18.113,1.15,24.709,15.921,2.2,4.971,1.679,13.413,1.246,20.2l-.013.25c-.05.75-.092,1.438-.125,2.125a3.237,3.237,0,0,0,1.671.375,11.707,11.707,0,0,0,4.3-1.254,4.15,4.15,0,0,1,1.933-.433,5.7,5.7,0,0,1,2.121.375c1.875.621,3.058,2,3.058,3.492q.094,2.806-5.054,4.867c-.371.121-.871.313-1.433.5-1.875.563-4.746,1.5-5.554,3.375a4.36,4.36,0,0,0,.5,3.617l.062.062c.25.567,6.358,14.479,19.963,16.725A2.079,2.079,0,0,1,100,73.105a2.524,2.524,0,0,1-.187.938c-1,2.371-5.3,4.117-13.108,5.3a11.186,11.186,0,0,0-.683,2.375,16.767,16.767,0,0,1-.558,2.3,2.184,2.184,0,0,1-2.313,1.688h-.125A13.3,13.3,0,0,1,80.78,85.4a25.14,25.14,0,0,0-5.3-.563,20.246,20.246,0,0,0-3.8.308c-2.5.433-4.679,1.933-7.179,3.683-3.554,2.5-7.608,5.367-13.725,5.367-.25,0-.5-.062-.75-.062H49.4c-6.117,0-10.113-2.813-13.663-5.367-2.5-1.75-4.613-3.246-7.113-3.683a27.6,27.6,0,0,0-3.867-.308,26.163,26.163,0,0,0-5.3.621,11.994,11.994,0,0,1-2.25.308,2.326,2.326,0,0,1-2.429-1.75c-.254-.8-.375-1.621-.563-2.363a11.055,11.055,0,0,0-.692-2.375C5.529,78.289,1.229,76.539.233,74.105A2.5,2.5,0,0,1,0,73.168a2.067,2.067,0,0,1,1.75-2.121c13.6-2.25,19.709-16.163,19.963-16.75l.067-.121a4.159,4.159,0,0,0,.5-3.621c-.813-1.808-3.683-2.742-5.55-3.371a9.305,9.305,0,0,1-1.442-.5c-4.613-1.813-5.238-3.875-4.988-5.3.375-2,2.808-3.3,4.867-3.3a4.22,4.22,0,0,1,1.6.308,11.4,11.4,0,0,0,4.6,1.25A3.939,3.939,0,0,0,23.3,39.2l-.192-2.371c-.408-6.775-.938-15.213,1.279-20.154C30.8,1.98,44.746.855,48.863.855L50.608.792h.25Z" transform="translate(0 -0.792)" fill="#e9e3e3"/>
</svg>
